<svg xmlns="http://www.w3.org/2000/svg" width="1200" height="550" viewBox="0 0 1200 550" role="img" aria-labelledby="title desc">
  <title id="title">Henry Fadeni terminal profile</title>
  <desc id="desc">A dark terminal-style GitHub profile card with a detailed ASCII portrait and engineering profile details.</desc>

  <style>
    .mono { font-family: "Cascadia Code", "SFMono-Regular", Consolas, "Liberation Mono", monospace; }
    .header { fill: #c9d1d9; font-size: 15px; font-weight: 600; }
    .host { fill: #c9d1d9; font-size: 16px; font-weight: 600; }
    .label { fill: #d29922; font-size: 14px; font-weight: 600; }
    .dots { fill: #484f58; font-size: 14px; }
    .value { fill: #79c0ff; font-size: 14px; }
    .value-green { fill: #7ee787; font-size: 14px; }
    .value-purple { fill: #d2a8ff; font-size: 14px; }
    .section { fill: #8b949e; font-size: 13px; }
  </style>

  <rect x="1" y="1" width="1198" height="548" rx="8" fill="#0d1117" stroke="#30363d" stroke-width="2" />
  <text x="32" y="40" class="mono header">Protagonist01 / README.md</text>

  <g transform="translate(1148 25)" fill="none" stroke="#8b949e" stroke-width="2" stroke-linecap="round" stroke-linejoin="round" aria-hidden="true">
    <path d="M3 17.5V21h3.5L18.8 8.7l-3.5-3.5L3 17.5Z" />
    <path d="m13.8 6.7 3.5 3.5" />
  </g>

  <rect x="28" y="70" width="1144" height="452" rx="12" fill="#11161f" />
  <image href="ascii-portrait.png" x="34" y="82" width="340" height="420" preserveAspectRatio="xMidYMid meet" />

  <g class="mono">
    <text x="390" y="99" class="host">henry@protagonist01</text>

    <text x="390" y="124" class="label">Role</text>
    <text x="498" y="124" class="dots">........................</text>
    <text x="671" y="124" class="value">Software &amp; AI Engineer</text>

    <text x="390" y="145" class="label">Focus</text>
    <text x="498" y="145" class="dots">........................</text>
    <text x="671" y="145" class="value">Production AI systems &amp; automation</text>

    <text x="390" y="166" class="label">Member</text>
    <text x="498" y="166" class="dots">........................</text>
    <text x="671" y="166" class="value">GitHub since June 2022</text>

    <text x="390" y="190" class="section">-- Engineering ------------------------------------------------------</text>

    <text x="390" y="214" class="label">Languages</text>
    <text x="498" y="214" class="dots">........................</text>
    <text x="671" y="214" class="value-green">Python, TypeScript, JavaScript, SQL</text>

    <text x="390" y="235" class="label">AI / ML</text>
    <text x="498" y="235" class="dots">........................</text>
    <text x="671" y="235" class="value-green">LangGraph, RAG, OpenAI, Pinecone</text>

    <text x="390" y="256" class="label">Frameworks</text>
    <text x="498" y="256" class="dots">........................</text>
    <text x="671" y="256" class="value-green">FastAPI, React, Next.js, Express</text>

    <text x="390" y="277" class="label">Infra</text>
    <text x="498" y="277" class="dots">........................</text>
    <text x="671" y="277" class="value-green">Docker, Redis, PostgreSQL, Prometheus</text>

    <text x="390" y="298" class="label">Building</text>
    <text x="498" y="298" class="dots">........................</text>
    <text x="671" y="298" class="value-green">Agents, developer tools, analytics systems</text>

    <text x="390" y="322" class="section">-- Hobbies ----------------------------------------------------------</text>

    <text x="390" y="346" class="label">Making</text>
    <text x="498" y="346" class="dots">........................</text>
    <text x="671" y="346" class="value-purple">Hardware, robots</text>

    <text x="390" y="367" class="label">Creating</text>
    <text x="498" y="367" class="dots">........................</text>
    <text x="671" y="367" class="value-purple">Writing, drawing, space exploration</text>

    <text x="390" y="388" class="label">Fun</text>
    <text x="498" y="388" class="dots">........................</text>
    <text x="671" y="388" class="value-purple">Football, hiking</text>

    <text x="390" y="412" class="section">-- Contact ----------------------------------------------------------</text>

    <text x="390" y="436" class="label">Email</text>
    <text x="498" y="436" class="dots">........................</text>
    <text x="671" y="436" class="value">hfadeni@gmail.com</text>

    <text x="390" y="457" class="label">LinkedIn</text>
    <text x="498" y="457" class="dots">........................</text>
    <text x="671" y="457" class="value">henry-fadeni-ai-engineer</text>

    <text x="390" y="481" class="section">-- GitHub Stats -----------------------------------------------------</text>

    <text x="390" y="506" class="label">Repos</text>
    <text x="449" y="506" class="value">14</text>
    <text x="493" y="506" class="label">Stars</text>
    <text x="552" y="506" class="value">1</text>
    <text x="596" y="506" class="label">Followers</text>
    <text x="688" y="506" class="value">1</text>
    <text x="732" y="506" class="label">Following</text>
    <text x="824" y="506" class="value">3</text>

  </g>
</svg>
